<svg width="50" height="24" viewBox="0 0 50 24" fill="none" xmlns="http://www.w3.org/2000/svg">
<path d="M42.7218 23.3902V0.622314H45.0628V23.3902H42.7218Z" fill="url(#paint0_linear_6_812)"/>
<path d="M9.9201 0.613525H11.8934L21.7596 23.3902H19.302L16.2256 16.2637H5.54306L2.50245 23.3902H0L9.9201 0.613525ZM15.7143 14.4996L10.8888 3.24227L6.04534 14.4996H15.7143Z" fill="url(#paint1_linear_6_812)"/>
<path d="M38.383 19.9317C39.5128 18.9224 40.4031 17.6854 40.9917 16.3068C41.5803 14.9282 41.8532 13.4412 41.7913 11.9494C41.7945 9.97052 41.2492 8.02744 40.2127 6.32515C39.1872 4.60063 37.7191 3.16513 35.9523 2.15934C34.2282 1.14642 32.2524 0.611874 30.2388 0.613529H30.0056V3.10254H30.1222C31.2779 3.09811 32.4245 3.30243 33.5037 3.70514C34.5646 4.08027 35.5367 4.66051 36.3613 5.41094C37.186 6.16137 37.8462 7.06649 38.3023 8.07183C38.8111 9.12725 39.0803 10.277 39.0916 11.4429C39.1683 13.8984 38.276 16.2893 36.5981 18.1239L33.1718 14.7092H29.7365L34.7235 19.5475C33.3723 20.3569 31.8248 20.8029 30.2388 20.84C28.2056 20.8511 26.2474 20.0934 24.7765 18.7265L23.2248 20.8749C24.0446 21.522 24.9496 22.0595 25.9156 22.4732C27.363 23.0902 28.9279 23.4027 30.5079 23.3902C32.707 23.3351 34.8345 22.6181 36.5981 21.3378L38.5086 23.2504H41.7913L38.383 19.9317Z" fill="url(#paint2_linear_6_812)"/>
<path d="M19.6713 8.19426L22.2186 9.0152C22.4273 8.38312 22.7039 7.77423 23.0438 7.19866C23.2937 6.78818 23.5756 6.39694 23.8869 6.02839L21.9944 4.32538C20.9637 5.45191 20.174 6.76715 19.6713 8.19426Z" fill="#EA4D9A"/>
<path d="M25.5793 1.60045L26.6108 3.9672L26.9067 3.83619C27.8721 3.37796 28.9275 3.12774 30.0012 3.10259V0.622314C28.4709 0.624366 26.9603 0.958514 25.5793 1.60045Z" fill="#BD202E"/>
<path d="M25.5811 1.60914C24.3252 2.20744 23.1986 3.03456 22.2624 4.04575C22.1727 4.13308 22.092 4.22915 22.0113 4.32521L23.9218 6.07189C24.6614 5.20534 25.5777 4.49759 26.6126 3.99335L25.5811 1.6004V1.60914Z" fill="#9858A2"/>
<path d="M23.2232 20.875L24.7749 18.7266C24.6015 18.5694 24.4311 18.4035 24.2637 18.2288C23.5656 17.5282 22.9872 16.7233 22.5505 15.8446L20.2454 17.1808C20.9473 18.6102 21.964 19.8715 23.2232 20.875Z" fill="#A6C639"/>
<path d="M19.857 16.3336C19.9736 16.6218 20.1082 16.9013 20.2427 17.207L22.5478 15.8708C22.0243 14.7972 21.7429 13.6269 21.7227 12.4385L19.0319 12.7267C19.0944 13.966 19.3735 15.1857 19.857 16.3336Z" fill="#F7EC33"/>
<path d="M19.025 12.2028C19.025 12.3688 19.025 12.5347 19.025 12.7006L21.7158 12.4124C21.7158 12.3426 21.7158 12.2727 21.7158 12.2028C21.7092 11.1211 21.8787 10.0452 22.2181 9.01515L19.6708 8.19421C19.2316 9.48698 19.0135 10.8412 19.025 12.2028Z" fill="#EA7451"/>
<path d="M47.4667 4.57852C48.5862 4.57852 49.4937 3.71831 49.4937 2.65718C49.4937 1.59605 48.5862 0.73584 47.4667 0.73584C46.3471 0.73584 45.4396 1.59605 45.4396 2.65718C45.4396 3.71831 46.3471 4.57852 47.4667 4.57852Z" fill="#209EC9"/>
<path d="M47.4683 4.17673C48.36 4.17673 49.0828 3.49637 49.0828 2.65712C49.0828 1.81786 48.36 1.13751 47.4683 1.13751C46.5767 1.13751 45.8538 1.81786 45.8538 2.65712C45.8538 3.49637 46.5767 4.17673 47.4683 4.17673Z" fill="white"/>
<path d="M48.3893 3.48705L48.0036 2.83205C48.071 2.79846 48.1342 2.75744 48.1919 2.70978C48.2587 2.64518 48.3101 2.56716 48.3427 2.48117C48.3752 2.39518 48.388 2.30331 48.3803 2.21198C48.3623 2.0499 48.282 1.90044 48.1556 1.79354C48.0292 1.68665 47.866 1.63022 47.6986 1.63558H46.8376C46.8286 1.63432 46.8195 1.63496 46.8108 1.63746C46.8021 1.63996 46.7941 1.64427 46.7873 1.65007C46.7804 1.65588 46.775 1.66306 46.7713 1.67111C46.7676 1.67916 46.7657 1.68789 46.7658 1.69671V3.52198C46.7657 3.5308 46.7676 3.53954 46.7713 3.54759C46.775 3.55564 46.7804 3.56281 46.7873 3.56862C46.7941 3.57443 46.8021 3.57873 46.8108 3.58123C46.8195 3.58374 46.8286 3.58438 46.8376 3.58312H47.1874C47.2049 3.58325 47.222 3.5771 47.2352 3.56583C47.2484 3.55456 47.2569 3.53896 47.2591 3.52198V2.83205H47.5013L47.869 3.52198C47.8786 3.52735 47.8894 3.53017 47.9004 3.53017C47.9115 3.53017 47.9223 3.52735 47.9318 3.52198H48.3265C48.3364 3.52607 48.3471 3.52817 48.3579 3.52817C48.3687 3.52817 48.3793 3.52607 48.3893 3.52198C48.3983 3.49952 48.3983 3.47458 48.3893 3.45212V3.48705ZM47.7076 2.45651H47.2591V1.95871H47.7076C47.7727 1.95867 47.8352 1.98323 47.8821 2.02722C47.9289 2.07121 47.9564 2.13118 47.9587 2.19451C47.9612 2.22806 47.9565 2.26175 47.945 2.29346C47.9335 2.32518 47.9154 2.35424 47.8918 2.37883C47.8683 2.40342 47.8397 2.42301 47.808 2.43638C47.7763 2.44974 47.7421 2.4566 47.7076 2.45651Z" fill="#209EC9"/>
<defs>
<linearGradient id="paint0_linear_6_812" x1="-11.8208" y1="22.7963" x2="68.8787" y2="6.3141" gradientUnits="userSpaceOnUse">
<stop stop-color="#2D86BA"/>
<stop offset="0.12" stop-color="#2C89BD"/>
<stop offset="0.18" stop-color="#2D8CBF"/>
<stop offset="0.25" stop-color="#2A99CE"/>
<stop offset="0.34" stop-color="#28A2D8"/>
<stop offset="0.47" stop-color="#27649D"/>
<stop offset="0.48" stop-color="#27316C"/>
<stop offset="0.49" stop-color="#27558E"/>
<stop offset="0.5" stop-color="#2682BA"/>
<stop offset="0.51" stop-color="#26A9E0"/>
<stop offset="0.52" stop-color="#262261"/>
<stop offset="0.56" stop-color="#2D5D90"/>
<stop offset="0.62" stop-color="#2B9ACF"/>
<stop offset="0.67" stop-color="#26A9E0"/>
</linearGradient>
<linearGradient id="paint1_linear_6_812" x1="-23.6701" y1="25.7132" x2="59.0814" y2="-4.58122" gradientUnits="userSpaceOnUse">
<stop stop-color="#272664"/>
<stop offset="0.09" stop-color="#272A67"/>
<stop offset="0.14" stop-color="#262261"/>
<stop offset="0.23" stop-color="#272C68"/>
<stop offset="0.24" stop-color="#27346E"/>
<stop offset="0.25" stop-color="#293870"/>
<stop offset="0.35" stop-color="#2E88BC"/>
<stop offset="0.46" stop-color="#26A9E0"/>
<stop offset="0.49" stop-color="#2D83B7"/>
<stop offset="0.55" stop-color="#2A4178"/>
<stop offset="0.74" stop-color="#2B4D81"/>
<stop offset="0.78" stop-color="#26A9E0"/>
<stop offset="0.81" stop-color="#26A9E0"/>
</linearGradient>
<linearGradient id="paint2_linear_6_812" x1="-21.4246" y1="31.8266" x2="60.5338" y2="1.83413" gradientUnits="userSpaceOnUse">
<stop stop-color="#262261"/>
<stop offset="0.11" stop-color="#262766"/>
<stop offset="0.23" stop-color="#263573"/>
<stop offset="0.37" stop-color="#264D8A"/>
<stop offset="0.51" stop-color="#266EA9"/>
<stop offset="0.66" stop-color="#2699D1"/>
<stop offset="0.71" stop-color="#26A9E0"/>
</linearGradient>
</defs>
</svg>
