<svg width="19" height="19" viewBox="0 0 19 19" fill="none" xmlns="http://www.w3.org/2000/svg">
<path d="M6.56106 0.000444503C6.9949 0.237578 7.16053 0.517786 7.07394 0.868601C6.98025 1.24606 6.70183 1.41791 6.18273 1.41791C4.86894 1.41791 3.55501 1.41791 2.24092 1.41791C1.69533 1.41791 1.42254 1.68939 1.42254 2.23234C1.42254 3.5983 1.42254 4.96411 1.42254 6.32977C1.42254 6.77384 1.11171 7.09401 0.702294 7.08735C0.33551 7.08113 0.0122435 6.78716 0.0104673 6.41547C0.00380659 4.93139 -0.0135117 3.44731 0.0197919 1.96412C0.0402181 1.03868 0.758244 0.258893 1.68053 0.0470719C1.72852 0.0337901 1.77579 0.0180789 1.82218 0L6.56106 0.000444503Z" fill="#53616C"/>
<path d="M18.6256 6.5566C18.6091 6.57934 18.5943 6.60323 18.5812 6.6281C18.42 6.97003 18.1087 7.14499 17.7819 7.07572C17.4373 7.00289 17.2113 6.71602 17.2104 6.33679C17.2104 5.42245 17.2104 4.50811 17.2104 3.59421C17.2104 3.12217 17.2131 2.65057 17.2104 2.17852C17.2078 1.70648 16.9129 1.41916 16.4467 1.41872C15.0608 1.41872 13.6745 1.41872 12.2886 1.41872C11.9298 1.41872 11.6669 1.22732 11.5697 0.909814C11.5261 0.767904 11.5291 0.615765 11.5782 0.475681C11.6274 0.335598 11.7201 0.214932 11.8428 0.131361C11.9143 0.0820689 11.9938 0.0447669 12.0693 0.00213623H16.8095C16.8565 0.0181227 16.9023 0.037218 16.9507 0.049652C17.7242 0.243858 18.2467 0.715608 18.5182 1.4649C18.5599 1.5808 18.5901 1.7007 18.6256 1.82016V6.5566Z" fill="#53616C"/>
<path d="M18.6248 16.8076C18.5804 16.9462 18.5422 17.0865 18.4916 17.2233C18.1999 18.0395 17.4334 18.6101 16.572 18.6168C15.1324 18.6305 13.6928 18.6248 12.2532 18.6203C12.159 18.6216 12.0656 18.6041 11.9784 18.5686C11.8911 18.5332 11.8119 18.4807 11.7453 18.4141C11.6788 18.3475 11.6262 18.2683 11.5908 18.1811C11.5554 18.0938 11.5378 18.0004 11.5391 17.9063C11.5445 17.511 11.8544 17.21 12.274 17.2091C13.6396 17.2061 15.0054 17.2061 16.3713 17.2091C16.9436 17.2091 17.2083 16.9426 17.2083 16.3653C17.2083 15 17.2083 13.6342 17.2083 12.2679C17.2083 11.9015 17.4388 11.6209 17.778 11.5494C18.0928 11.4828 18.3997 11.644 18.5613 11.9562C18.5808 11.9944 18.6057 12.0312 18.6248 12.0685V16.8076Z" fill="#53616C"/>
<path d="M0.00204409 14.427C0.00204409 13.733 0.00204409 13.039 0.00204409 12.3447C0.00204409 11.8563 0.288455 11.5334 0.71563 11.5365C1.1428 11.5396 1.419 11.8634 1.419 12.3558C1.419 13.6993 1.419 15.0429 1.419 16.3866C1.419 16.928 1.69564 17.206 2.23383 17.206C3.59972 17.206 4.96517 17.206 6.33106 17.206C6.87235 17.206 7.22848 17.6869 7.04154 18.1634C6.92786 18.4507 6.70584 18.6181 6.39545 18.6194C4.93409 18.6243 3.47183 18.6394 2.01047 18.6128C0.927883 18.5928 0.0313515 17.6607 0.00781693 16.5736C-0.00772475 15.8578 0.00470827 15.1415 0.00470827 14.4256L0.00204409 14.427Z" fill="#53616C"/>
</svg>
