<svg width="18" height="18" viewBox="0 0 18 18" fill="none" xmlns="http://www.w3.org/2000/svg">
<path d="M9 15.75C12.728 15.75 15.75 12.728 15.75 9C15.75 5.27198 12.728 2.25 9 2.25C5.27198 2.25 2.25 5.27198 2.25 9C2.25 12.728 5.27198 15.75 9 15.75Z" stroke="#53616C" stroke-width="1.0125" stroke-linecap="round" stroke-linejoin="round"/>
<path d="M6.30045 2.92493H6.97545C5.65922 6.86798 5.65922 11.1319 6.97545 15.0749H6.30045M11.0255 2.92493C12.3417 6.86798 12.3417 11.1319 11.0255 15.0749" stroke="#53616C" stroke-width="1.0125" stroke-linecap="round" stroke-linejoin="round"/>
<path d="M2.92383 11.7001V11.0251C6.86689 12.3413 11.1308 12.3413 15.0738 11.0251V11.7001M2.92383 6.97509C6.86689 5.65886 11.1308 5.65886 15.0738 6.97509" stroke="#53616C" stroke-width="1.0125" stroke-linecap="round" stroke-linejoin="round"/>
</svg>
