<svg width="34" height="29" viewBox="0 0 34 29" fill="none" xmlns="http://www.w3.org/2000/svg">
<path d="M32.9401 7.29109C32.9449 5.49962 32.2486 3.77737 31 2.49267C29.7514 1.20797 28.0497 0.462828 26.2588 0.416594C24.468 0.370359 22.7301 1.02671 21.4169 2.24527C20.1037 3.46382 19.3194 5.14786 19.2318 6.93719C18.3635 6.07025 17.2786 5.45207 16.0901 5.14707C14.9016 4.84207 13.653 4.86142 12.4746 5.20311C11.2961 5.5448 10.2309 6.19631 9.38985 7.08975C8.54884 7.98318 7.96285 9.08583 7.69297 10.2828C7.22866 10.0394 6.70938 9.91993 6.18538 9.93605C5.66139 9.95217 5.15043 10.1033 4.70197 10.3748C4.2535 10.6463 3.88273 11.029 3.62553 11.4858C3.36832 11.9426 3.2334 12.4581 3.23383 12.9823C3.23404 13.1936 3.25583 13.4043 3.29885 13.6111C2.72345 13.7931 2.19269 14.0939 1.74095 14.4941C1.28921 14.8942 0.926567 15.3848 0.676484 15.9341C0.426402 16.4833 0.294465 17.0789 0.289225 17.6824C0.283985 18.2859 0.405556 18.8837 0.646063 19.4372C0.88657 19.9907 1.24065 20.4875 1.68537 20.8955C2.1301 21.3034 2.65555 21.6134 3.2277 21.8054C3.79985 21.9973 4.40593 22.067 5.00671 22.0098C5.60748 21.9526 6.18956 21.7699 6.71522 21.4734C7.29057 23.0474 8.42488 24.3546 9.90201 25.1459C11.3791 25.9373 13.0958 26.1576 14.7249 25.7647C15.2635 26.5967 16.0729 27.2173 17.0162 27.5214C17.9596 27.8256 18.979 27.7946 19.9022 27.4338C20.8254 27.073 21.5956 26.4045 22.0828 25.5413C22.5699 24.6782 22.744 23.6732 22.5757 22.6965C22.7591 22.5333 22.9059 22.3333 23.0066 22.1095C23.1073 21.8857 23.1596 21.6432 23.1601 21.3977C23.1579 21.3114 23.1493 21.2253 23.1346 21.1401C23.9011 21.0518 24.6298 20.7592 25.2446 20.2929C25.8593 19.8266 26.3375 19.2036 26.6291 18.4893C26.9207 17.7749 27.0151 16.9953 26.9023 16.232C26.7895 15.4687 26.4737 14.7497 25.988 14.1502C26.0184 14.1502 26.0472 14.1502 26.0769 14.1502C27.8965 14.1504 29.6416 13.4279 30.9287 12.1417C32.2157 10.8554 32.9392 9.11068 32.9401 7.29109V7.29109Z" stroke="#667580" stroke-width="0.576117" stroke-miterlimit="10"/>
</svg>
