<svg width="38" height="28" viewBox="0 0 38 28" fill="none" xmlns="http://www.w3.org/2000/svg">
<path d="M37.2049 10.3719C37.2199 10.345 37.2298 10.316 37.2343 10.2861C37.3708 9.7267 37.4419 9.15595 37.4465 8.58318C37.4465 8.45716 37.4397 8.33182 37.4322 8.20581C37.4246 8.07979 37.4103 7.94832 37.3952 7.82231C37.3801 7.69629 37.3589 7.5839 37.337 7.46537C37.3157 7.34264 37.2862 7.22118 37.2487 7.10163C37.2411 7.0812 37.2411 7.06144 37.2343 7.04169C37.17 6.82383 37.0916 6.60958 36.9995 6.40003C36.9481 6.28764 36.8967 6.17524 36.8378 6.06285C36.7789 5.95046 36.7132 5.83806 36.6475 5.7318C36.6037 5.6596 36.5592 5.59557 36.5078 5.52064C36.3575 5.29738 36.1884 5.08491 36.0019 4.88511H35.9951C35.9362 4.81699 35.8773 4.75296 35.8116 4.68689C35.7459 4.62081 35.6794 4.56155 35.6137 4.49548C35.474 4.35924 35.3275 4.24413 35.1735 4.11811C35.1338 4.08523 35.0922 4.0543 35.0489 4.02547L35.0345 4.01253C34.8873 3.90013 34.7324 3.79387 34.5814 3.6951C34.4304 3.59634 34.259 3.4962 34.0981 3.41038C33.9728 3.34226 33.8557 3.28436 33.7311 3.2251C33.6284 3.17878 33.5257 3.13246 33.429 3.09976C33.3232 3.04945 33.2128 3.0073 33.099 2.97374C32.9717 2.92094 32.8393 2.87898 32.7033 2.84841C32.5348 2.80151 32.3633 2.76375 32.1898 2.73534C32.1227 2.71825 32.0539 2.70729 31.9844 2.70264C31.8849 2.68275 31.784 2.66955 31.6823 2.66313C31.594 2.64951 31.5064 2.64338 31.418 2.63657C30.428 2.57663 29.3866 2.73534 28.3158 3.10589C28.0447 3.19853 27.7811 3.29798 27.4949 3.39743C27.282 3.17878 27.1174 2.9935 26.9376 2.82185C26.8274 2.71558 26.7179 2.6175 26.6076 2.51736L26.5782 2.4908C26.4536 2.38522 26.3214 2.27895 26.2006 2.18019C26.1793 2.16653 26.1596 2.15101 26.1417 2.13387C26.0171 2.04804 25.9 1.96153 25.7754 1.88251C25.6357 1.78988 25.4968 1.70405 25.3571 1.62435C25.2174 1.54465 25.0716 1.47245 24.9319 1.40638C24.5064 1.20471 24.056 1.04923 23.59 0.94318C23.4407 0.907428 23.2895 0.878779 23.1369 0.857352C23.0787 0.84742 23.02 0.840824 22.9609 0.837599C22.8544 0.820146 22.7466 0.808997 22.6385 0.804223C22.5725 0.798554 22.5062 0.796281 22.4399 0.797413C22.3427 0.786648 22.2447 0.782322 22.1469 0.78447C22.0881 0.78334 22.0293 0.785613 21.9709 0.79128C21.5811 0.798181 21.193 0.84017 20.8125 0.916617C20.5368 0.958858 20.2648 1.01849 19.9984 1.09508C19.5879 1.20896 19.1902 1.35743 18.8105 1.53852C18.7078 1.58484 18.6051 1.63797 18.5024 1.69042C18.3703 1.75854 18.2457 1.82257 18.1286 1.89478C18.0327 1.94791 17.9376 2.01398 17.85 2.07324C17.7443 2.1404 17.6435 2.21343 17.5479 2.2919C17.5192 2.31846 17.4897 2.33821 17.4603 2.36478C17.354 2.45037 17.2531 2.54134 17.1582 2.63725C17.0941 2.68783 17.0372 2.7455 16.9891 2.8089C16.9332 2.85979 16.8827 2.9152 16.838 2.97443C16.7625 3.05412 16.6991 3.13314 16.6334 3.21897C16.4046 3.49916 16.2102 3.80085 16.0534 4.11879V4.1256C16.0466 4.13855 16.0391 4.14536 16.0391 4.1583C15.9802 4.2775 15.922 4.39671 15.8707 4.51591C15.8261 4.62149 15.7823 4.73389 15.7461 4.84628C15.7098 4.95868 15.6706 5.06493 15.6434 5.17052C15.5471 5.48047 15.4784 5.79686 15.438 6.11666C15.401 6.33463 15.3202 6.54648 15.262 6.76445C15.0634 6.71813 14.8655 6.67181 14.6752 6.63912C14.389 6.58598 14.1028 6.54648 13.8242 6.51991C13.5482 6.49377 13.271 6.48059 12.9935 6.48041C12.4956 6.47783 11.9989 6.5235 11.5119 6.61664C11.4152 6.6299 11.3198 6.64971 11.2264 6.6759C11.1509 6.68884 11.0754 6.70928 11.0059 6.72903C10.9032 6.7556 10.8012 6.78148 10.7038 6.81486C10.6064 6.84824 10.4984 6.88298 10.4018 6.91431C10.3542 6.92887 10.3077 6.9464 10.2628 6.96676C10.1337 7.01311 10.0076 7.0661 9.88523 7.12547C9.75308 7.18541 9.62847 7.24468 9.50765 7.31075C9.46385 7.33051 9.4276 7.35094 9.38304 7.3707C9.34961 7.38811 9.31779 7.40793 9.28789 7.42996C9.14139 7.50965 9.00168 7.60229 8.86273 7.69493C8.65105 7.84024 8.44931 7.99697 8.2586 8.16425C8.134 8.27665 8.00864 8.38904 7.89914 8.50484C7.80399 8.60429 7.71564 8.70306 7.62728 8.80932L7.61293 8.82227C7.47398 8.99483 7.34208 9.17352 7.21722 9.35835C7.17267 9.42646 7.12887 9.49049 7.09262 9.55656C7.0171 9.67577 6.95292 9.8011 6.88722 9.92712C6.8117 10.079 6.73619 10.2309 6.67426 10.3903C6.63726 10.4959 6.59874 10.5947 6.564 10.6941C6.54966 10.7541 6.52776 10.8133 6.51266 10.8726C6.44938 11.0769 6.40044 11.2846 6.36615 11.4945C6.36615 11.5081 6.3586 11.5211 6.3586 11.534C6.3367 11.6702 6.32236 11.8065 6.30801 11.9379C6.29291 12.1164 6.28535 12.3017 6.28535 12.487C6.2929 12.7117 6.30801 12.9365 6.33671 13.1613C6.33671 13.1749 6.34426 13.1947 6.34426 13.2076C6.36616 13.3602 6.40316 13.5189 6.43941 13.6708C6.43941 13.6838 6.44696 13.6974 6.44696 13.7103C6.48396 13.869 6.53531 14.0216 6.58666 14.1803C6.66127 14.4204 6.75672 14.6547 6.87212 14.8813V14.8881C6.89402 14.9276 6.90912 14.9671 6.93102 15.0073C6.60155 15.0688 6.27587 15.1459 5.95534 15.2382H5.94855C5.78196 15.279 5.61787 15.3276 5.45694 15.384C5.33233 15.4235 5.20773 15.4698 5.09068 15.51C4.97363 15.5502 4.86413 15.5958 4.75312 15.6462C4.6776 15.6721 4.60662 15.7055 4.53337 15.7382C4.09392 15.9311 3.68041 16.1688 3.30094 16.4466C3.29338 16.4527 3.27903 16.4595 3.27148 16.4663C3.16136 16.5447 3.05623 16.6286 2.95658 16.7177C2.93261 16.7332 2.91036 16.7508 2.89013 16.7701C2.81461 16.8301 2.75117 16.8894 2.68472 16.9554L2.64092 16.9956C2.58957 17.0481 2.53822 17.1012 2.49442 17.1543C2.43785 17.2068 2.38725 17.2644 2.34339 17.326C2.3004 17.3655 2.26333 17.4099 2.23313 17.4581C2.15329 17.5511 2.0799 17.6485 2.01338 17.7497C1.92556 17.8737 1.84489 18.0017 1.77172 18.1332C1.69187 18.2613 1.62076 18.3937 1.55877 18.5296C1.52308 18.598 1.49353 18.6688 1.47041 18.7415C1.41334 18.8591 1.36687 18.9808 1.33147 19.1052C1.28012 19.2578 1.22877 19.4097 1.19176 19.5684C1.15501 19.7032 1.12577 19.8396 1.10416 19.9771V19.99C1.09661 20.0105 1.0966 20.0302 1.08905 20.0581C1.06715 20.1944 1.04526 20.3422 1.03846 20.488V20.4948C1.02968 20.5295 1.02461 20.5648 1.02335 20.6004C0.987792 20.9791 0.992856 21.3601 1.03846 21.7379V21.7447C1.05203 21.9158 1.07725 22.086 1.11398 22.2542V22.2604C1.17238 22.5487 1.25803 22.8319 1.36998 23.1071C1.49987 23.4406 1.66978 23.7604 1.87669 24.0607C2.11255 24.4073 2.39317 24.7274 2.71266 25.0143C2.98226 25.2612 3.2768 25.485 3.59243 25.6826C4.32674 26.1396 5.13928 26.4848 5.99763 26.7043C6.35986 26.799 6.73094 26.8635 7.10622 26.8971C7.26782 26.91 7.42867 26.9237 7.59028 26.9237C7.97896 26.9296 8.36724 26.8985 8.7487 26.831C8.93239 26.7991 9.11372 26.7571 9.29166 26.705C9.55927 26.6348 9.82139 26.5485 10.0763 26.4468C10.5217 26.2612 10.9465 26.0376 11.345 25.7793C11.5963 25.6211 11.8361 25.4486 12.0631 25.263C12.4271 24.9816 12.7701 24.6789 13.0901 24.357C13.4827 24.5746 13.8892 24.7711 14.3075 24.9455C14.6473 25.0888 14.9978 25.2103 15.3564 25.3093C15.5324 25.3624 15.7083 25.4087 15.8767 25.4455C16.2071 25.5178 16.5427 25.5688 16.8811 25.5981H16.8886C17.1349 25.6187 17.3825 25.6231 17.6294 25.611C17.9523 25.6045 18.2739 25.5712 18.59 25.5116H18.5976C18.7865 25.482 18.9727 25.4401 19.1549 25.3863C19.5243 25.2859 19.8827 25.1552 20.2257 24.9959C21.027 24.611 21.7568 24.1155 22.3885 23.5273C22.4041 23.5403 22.4213 23.5515 22.4399 23.5607C22.5796 23.6663 22.6891 23.746 22.7918 23.8332C22.9096 23.9258 23.0183 24.0246 23.1369 24.1241H23.1437C23.1712 24.1502 23.2007 24.1745 23.232 24.1969C23.5645 24.4449 23.9202 24.6662 24.2953 24.8583C24.6018 25.0261 24.9261 25.1658 25.2634 25.2752C25.4243 25.3345 25.5934 25.3808 25.7618 25.4271C26.0921 25.5142 26.431 25.5719 26.7737 25.5995H26.7813C27.0294 25.6255 27.2795 25.6321 27.5289 25.6192C27.8465 25.6106 28.1629 25.5796 28.4751 25.5266H28.4827C28.673 25.4932 28.8641 25.4537 29.0544 25.4074C29.2834 25.3531 29.5088 25.2869 29.7295 25.2091C29.8741 25.1629 30.016 25.1099 30.1546 25.0504C32.2812 24.1901 33.5574 22.6425 33.8942 20.4866C33.9826 19.9049 34.2393 19.5405 34.7596 19.1971C36.9964 17.7088 37.9789 15.1156 37.1286 12.7608C36.8311 11.9114 36.5229 11.1621 37.2049 10.3719Z" stroke="#677580" stroke-width="0.41019" stroke-miterlimit="10"/>
</svg>
