<svg width="36" height="28" viewBox="0 0 36 28" fill="none" xmlns="http://www.w3.org/2000/svg">
<path d="M34.7672 10.7631C34.7817 10.7355 34.791 10.7053 34.7945 10.6743C34.9217 10.0989 34.9878 9.51171 34.9917 8.92245C34.9917 8.79377 34.9847 8.66439 34.9777 8.53572C34.9707 8.40704 34.9574 8.27067 34.9441 8.14129C34.9308 8.01191 34.9099 7.89722 34.8896 7.77484C34.8696 7.64892 34.8425 7.52424 34.8084 7.40139C34.8014 7.38111 34.8014 7.36083 34.7945 7.33985C34.7356 7.1163 34.6632 6.89653 34.5777 6.68177C34.5301 6.56568 34.4826 6.45029 34.428 6.3321C34.3735 6.21391 34.3126 6.10132 34.2518 5.99292C34.2105 5.91809 34.17 5.85306 34.1224 5.77543C33.983 5.54661 33.8263 5.32872 33.6538 5.12365H33.6468C33.593 5.05371 33.5384 4.98798 33.4769 4.91944C33.4154 4.85091 33.3552 4.79076 33.2937 4.72293C33.165 4.58726 33.0293 4.46487 32.8867 4.33549C32.8454 4.30192 32.8118 4.26556 32.7713 4.24038L32.7573 4.22709C32.6216 4.1117 32.4776 4.00261 32.3377 3.9012C32.1978 3.7998 32.0391 3.69769 31.8894 3.60888C31.774 3.53894 31.6656 3.4802 31.5502 3.41866C31.4551 3.3711 31.36 3.32355 31.2705 3.28998C31.1725 3.23821 31.0703 3.19492 30.9649 3.1606C30.8469 3.10659 30.7243 3.06351 30.5984 3.03192C30.4424 2.98384 30.2836 2.94531 30.1229 2.91654C30.0608 2.89865 29.9971 2.88716 29.9327 2.88227C29.8405 2.86214 29.747 2.84859 29.6529 2.84171C29.5718 2.82842 29.49 2.82142 29.4089 2.81443C28.492 2.75359 27.5276 2.91654 26.536 3.29698C26.2849 3.39209 26.0401 3.49349 25.7751 3.59559C25.5786 3.3711 25.4254 3.18159 25.259 3.00465C25.1576 2.89626 25.0555 2.79485 24.9534 2.69205L24.9268 2.66477C24.8114 2.55637 24.689 2.44798 24.5736 2.34587C24.5538 2.33206 24.5355 2.31611 24.5191 2.29832C24.4037 2.2102 24.2953 2.12209 24.1792 2.04026C24.0505 1.94515 23.9211 1.85704 23.7925 1.77522C23.6638 1.69339 23.5274 1.61926 23.3987 1.55143C23.0046 1.34479 22.5875 1.18518 22.156 1.07588C22.0162 1.04231 21.8763 1.00594 21.7364 0.98776C21.6826 0.977606 21.6282 0.970834 21.5735 0.967481C21.4745 0.949904 21.3745 0.93846 21.2741 0.933214C21.2132 0.927974 21.1521 0.925872 21.0909 0.926918C21.001 0.915288 20.9103 0.910611 20.8196 0.91293C20.7652 0.911754 20.7108 0.914093 20.6566 0.919926C20.2955 0.927357 19.9359 0.970456 19.5832 1.0486C19.3279 1.0923 19.076 1.15375 18.8293 1.23253C18.4491 1.34916 18.0808 1.50135 17.7292 1.6871C17.6341 1.73465 17.539 1.7892 17.4439 1.84305C17.3222 1.91298 17.2068 1.97942 17.0977 2.05285C17.0096 2.1074 16.9215 2.17524 16.8397 2.23678C16.7419 2.30551 16.6484 2.38025 16.5599 2.46057C16.5326 2.48784 16.5054 2.50812 16.4781 2.5354C16.38 2.62363 16.2866 2.71701 16.1984 2.81513C16.1391 2.86731 16.0867 2.92676 16.0424 2.99207C15.9901 3.04357 15.9433 3.10027 15.9025 3.1613C15.8326 3.24313 15.7739 3.32425 15.7123 3.41306C15.501 3.70067 15.3211 4.01015 15.1759 4.33619V4.34318C15.1685 4.35322 15.1639 4.36505 15.1626 4.37745C15.1081 4.49914 15.0535 4.62152 15.006 4.74391C14.9654 4.8523 14.9249 4.96769 14.8906 5.08378C14.8563 5.19987 14.8207 5.30757 14.7955 5.41597C14.707 5.73435 14.6434 6.05912 14.6053 6.38735C14.5717 6.61114 14.4969 6.82863 14.4423 7.05312C14.2591 7.00556 14.0759 6.95801 13.8989 6.92374C13.6346 6.86919 13.3695 6.82863 13.1115 6.80136C12.8559 6.77454 12.5992 6.761 12.3422 6.7608C11.8812 6.75815 11.4212 6.80504 10.9701 6.90066C10.8804 6.91468 10.7919 6.93501 10.7051 6.9615C10.6351 6.97549 10.5694 6.99577 10.5016 7.01606C10.4064 7.04333 10.3113 7.0706 10.2218 7.10417C10.1323 7.13774 10.0316 7.1741 9.94208 7.20627C9.89771 7.22134 9.85447 7.23957 9.81271 7.26082C9.69301 7.30812 9.57624 7.36253 9.46304 7.42377C9.34065 7.48461 9.22526 7.54615 9.11337 7.61399C9.07281 7.63427 9.03854 7.65455 8.99797 7.67483C8.96717 7.69295 8.93772 7.71329 8.90986 7.73567C8.77419 7.8175 8.64481 7.91261 8.51543 8.00772C8.31986 8.15747 8.13306 8.31835 7.95596 8.48956C7.84057 8.60495 7.72518 8.72034 7.62307 8.84273C7.53496 8.94483 7.45384 9.04693 7.37201 9.15533L7.35873 9.16862C7.22959 9.34532 7.1072 9.52878 6.99158 9.719C6.95102 9.78893 6.91045 9.85467 6.87619 9.9225C6.80625 10.0449 6.74751 10.1743 6.68597 10.3029C6.61603 10.4589 6.55029 10.6155 6.48945 10.7785C6.45518 10.8869 6.41952 10.9883 6.38735 11.0904C6.37406 11.1519 6.35308 11.2128 6.33979 11.2743C6.28086 11.484 6.23554 11.6973 6.20412 11.9128C6.20412 11.9261 6.19713 11.9394 6.19713 11.9534C6.17685 12.0891 6.16356 12.2331 6.14957 12.3674C6.13628 12.5506 6.12929 12.7408 6.12929 12.9311C6.13628 13.1618 6.14957 13.3926 6.17685 13.6241C6.17685 13.6374 6.18384 13.6577 6.18384 13.6717C6.20412 13.8276 6.23769 13.9906 6.27196 14.1465C6.27196 14.1605 6.27895 14.1738 6.27895 14.1878C6.31252 14.3507 6.36008 14.5067 6.40763 14.6696C6.47673 14.9161 6.56536 15.1568 6.67268 15.3892V15.3962C6.69296 15.4368 6.70625 15.478 6.72723 15.5186C6.42202 15.5817 6.1204 15.6611 5.82368 15.7564H5.81669C5.66263 15.7979 5.51089 15.8477 5.36212 15.9053C5.24673 15.9466 5.13134 15.9942 5.02224 16.0347C4.91314 16.0753 4.81244 16.1228 4.70964 16.1746C4.6397 16.2019 4.57396 16.2354 4.50613 16.2697C4.09941 16.4675 3.71671 16.7113 3.36551 16.9963C3.35852 17.0033 3.34523 17.0096 3.33824 17.0166C3.23604 17.0971 3.13845 17.1832 3.04591 17.2746C3.02394 17.2908 3.00356 17.3091 2.98507 17.3292C2.91804 17.3889 2.85453 17.4524 2.79485 17.5194C2.78156 17.5327 2.76757 17.546 2.75428 17.56C2.70673 17.6145 2.65918 17.6684 2.61862 17.7229C2.56638 17.777 2.51954 17.836 2.47875 17.8992C2.43862 17.941 2.40428 17.988 2.37665 18.039C2.30248 18.1341 2.2345 18.2338 2.17314 18.3376C2.09158 18.4649 2.01665 18.5963 1.94865 18.7314C1.87493 18.8632 1.8093 18.9993 1.75213 19.1391C1.71891 19.209 1.69154 19.2815 1.67031 19.3559C1.61704 19.4768 1.57399 19.6019 1.54163 19.73C1.49408 19.886 1.44652 20.0419 1.41226 20.2049C1.37795 20.3432 1.35087 20.4833 1.33113 20.6245V20.6385C1.32414 20.6587 1.32414 20.679 1.31715 20.7084C1.29687 20.8483 1.27658 21 1.26959 21.1497V21.1567C1.26173 21.1923 1.25728 21.2286 1.25631 21.2651C1.22315 21.6539 1.2276 22.045 1.26959 22.433V22.44C1.2828 22.6155 1.30615 22.7902 1.33952 22.9631V22.9701C1.39403 23.266 1.47357 23.5568 1.5773 23.8393C1.69744 24.1817 1.85455 24.51 2.04585 24.8184C2.26473 25.1739 2.52457 25.5025 2.82002 25.7975C3.06967 26.051 3.34243 26.2807 3.63476 26.4835C3.93093 26.6899 4.24206 26.8738 4.56557 27.0339C4.98122 27.2417 5.41558 27.4099 5.86285 27.536C6.20036 27.6309 6.54589 27.6946 6.89507 27.7263C7.04403 27.7402 7.19369 27.7535 7.34265 27.7535C7.70283 27.76 8.06268 27.7281 8.41613 27.6584C8.58601 27.6257 8.7537 27.5825 8.91825 27.529C9.16603 27.4571 9.40877 27.3688 9.64486 27.2647C10.0575 27.074 10.4509 26.8442 10.8198 26.5786C11.0527 26.4165 11.2751 26.2397 11.4855 26.0492C11.8224 25.7599 12.1401 25.449 12.4366 25.1184C12.7999 25.3424 13.1763 25.5442 13.564 25.7226C13.8784 25.8698 14.2028 25.9948 14.5346 26.0968C14.6976 26.1506 14.8605 26.1982 15.0172 26.2367C15.3231 26.3108 15.6339 26.3632 15.9473 26.3933H15.9543C16.1821 26.4149 16.4112 26.4193 16.6396 26.4066C16.9389 26.4002 17.2369 26.3662 17.5299 26.3052H17.5362C17.7112 26.275 17.8837 26.2318 18.0523 26.1758C18.3944 26.0729 18.7264 25.9388 19.044 25.7751C19.7863 25.3799 20.4623 24.8712 21.0476 24.2673C21.0615 24.2812 21.0776 24.2927 21.0951 24.3016C21.2238 24.41 21.3259 24.4918 21.421 24.5813C21.5294 24.6764 21.6308 24.7785 21.7399 24.8799H21.7469C21.7724 24.9068 21.7998 24.9318 21.8287 24.9548C22.1366 25.2093 22.466 25.4365 22.8134 25.6338C23.0966 25.8067 23.3968 25.9502 23.7092 26.0618C23.8589 26.1227 24.0149 26.1702 24.1715 26.2178C24.4773 26.3076 24.7912 26.3669 25.1086 26.3947H25.1156C25.3454 26.4218 25.577 26.4286 25.808 26.415C26.1021 26.4065 26.3951 26.3747 26.6842 26.3199H26.6905C26.8675 26.2856 27.0437 26.2451 27.2206 26.1975C27.4326 26.1421 27.6412 26.0741 27.8451 25.994C27.9792 25.9466 28.1106 25.8922 28.2389 25.831C30.2089 24.9478 31.3901 23.3589 31.7027 21.1455C31.7838 20.5482 32.0216 20.1748 32.5041 19.8216C34.5756 18.2936 35.4854 15.6312 34.6973 13.2136C34.421 12.345 34.1357 11.5708 34.7672 10.7631Z" stroke="#667580" stroke-width="0.489537" stroke-miterlimit="10"/>
</svg>
