<svg width="34" height="20" viewBox="0 0 34 20" fill="none" xmlns="http://www.w3.org/2000/svg">
<path d="M7.15828 19.3128C4.05661 19.6114 0.797196 19.3976 0.334108 15.8821C-0.0687606 12.8075 2.84801 10.2673 5.94967 10.2673C5.948 9.27082 6.21197 8.29186 6.71441 7.43127C7.21686 6.57068 7.93961 5.85957 8.80825 5.37116C9.67689 4.88276 10.66 4.63472 11.6564 4.65258C12.6528 4.67044 13.6264 4.95356 14.4769 5.47278C15.2702 3.84166 16.5932 2.52776 18.2298 1.74575C19.8664 0.963732 21.7198 0.759817 23.4872 1.16732C25.2547 1.57482 26.8317 2.56964 27.9606 3.98927C29.0896 5.40891 29.7038 7.16944 29.7028 8.98326C29.7028 9.09182 29.6909 9.19698 29.6867 9.30385C30.7845 9.68824 31.7359 10.4042 32.4091 11.3528C33.0824 12.3013 33.4443 13.4356 33.4448 14.5988C33.4448 17.6996 30.9309 19.2127 27.8293 19.2127" stroke="#667580" stroke-width="0.593702" stroke-miterlimit="10"/>
</svg>
