<svg width="34" height="19" viewBox="0 0 34 19" fill="none" xmlns="http://www.w3.org/2000/svg">
<path d="M7.58724 18.0607C4.62194 18.3453 1.50583 18.1418 1.0631 14.7808C0.677945 11.8415 3.46647 9.41295 6.43177 9.41295C6.43017 8.46024 6.68255 7.52432 7.1629 6.70157C7.64326 5.87882 8.33424 5.19897 9.16468 4.73204C9.99513 4.26511 10.935 4.02797 11.8876 4.04505C12.8401 4.06212 13.7709 4.3328 14.5841 4.82919C15.3425 3.2699 16.6072 2.01385 18.1716 1.2662C19.7361 0.518542 21.5078 0.323468 23.1975 0.712842C24.8871 1.10222 26.3948 2.05303 27.4742 3.40996C28.5537 4.7669 29.1411 6.44977 29.1406 8.18369C29.1406 8.28748 29.1292 8.38803 29.1252 8.4902C30.1748 8.85759 31.0844 9.54205 31.728 10.4489C32.3717 11.3558 32.7177 12.4403 32.7181 13.5524C32.7181 16.5168 30.3147 17.9634 27.3494 17.9634" stroke="#667580" stroke-width="0.567598" stroke-miterlimit="10"/>
</svg>
