<svg width="36" height="31" viewBox="0 0 36 31" fill="none" xmlns="http://www.w3.org/2000/svg">
<path d="M35.2715 8.45352C35.2766 6.58958 34.5521 4.79767 33.253 3.46101C31.9539 2.12435 30.1834 1.34907 28.3201 1.30096C26.4567 1.25286 24.6486 1.93575 23.2822 3.2036C21.9159 4.47145 21.0999 6.22359 21.0088 8.0853C20.1055 7.18307 18.9766 6.53966 17.74 6.22214C16.5034 5.90462 15.2042 5.92463 13.978 6.28006C12.7517 6.63549 11.6433 7.31334 10.7681 8.24295C9.89299 9.17256 9.28323 10.3199 9.0024 11.5654C8.46977 11.286 7.86864 11.1641 7.26927 11.2137C6.66989 11.2634 6.09704 11.4826 5.61764 11.8458C5.13825 12.209 4.77213 12.7011 4.56207 13.2647C4.35202 13.8282 4.30669 14.4399 4.43141 15.0283C3.83186 15.217 3.27866 15.5295 2.8077 15.9458C2.33674 16.362 1.95854 16.8726 1.69763 17.4444C1.43671 18.0162 1.29891 18.6365 1.29316 19.265C1.28741 19.8935 1.41385 20.5162 1.66426 21.0927C1.91467 21.6692 2.28347 22.1866 2.74674 22.6114C3.21 23.0362 3.75739 23.3588 4.35339 23.5584C4.94939 23.758 5.58069 23.8301 6.20634 23.77C6.83199 23.7099 7.43801 23.5189 7.98511 23.2095C8.58327 24.8476 9.76356 26.2081 11.3008 27.0314C12.838 27.8547 14.6246 28.0833 16.3196 27.6735C16.88 28.5392 17.7221 29.1848 18.7036 29.5013C19.6851 29.8177 20.7458 29.7855 21.7063 29.4101C22.6668 29.0347 23.4682 28.3392 23.9751 27.4411C24.4819 26.543 24.6631 25.4974 24.488 24.4811C24.6787 24.3115 24.8315 24.1036 24.9362 23.8709C25.041 23.6382 25.0954 23.3859 25.096 23.1307C25.0938 23.0405 25.0847 22.9506 25.0685 22.8618C25.8662 22.7701 26.6245 22.4658 27.2642 21.9806C27.9039 21.4955 28.4016 20.8474 28.7051 20.1041C29.0086 19.3608 29.1068 18.5496 28.9895 17.7554C28.8722 16.9611 28.5437 16.213 28.0383 15.5892C28.0691 15.5892 28.0999 15.5943 28.1307 15.5943C30.0246 15.5943 31.8409 14.842 33.1801 13.5028C34.5192 12.1637 35.2715 10.3474 35.2715 8.45352V8.45352Z" stroke="#667580" stroke-width="0.599419" stroke-miterlimit="10"/>
</svg>
