<svg width="20" height="13" viewBox="0 0 20 13" fill="none" xmlns="http://www.w3.org/2000/svg">
<path d="M5.54688 6.03219C5.54688 6.03219 14.1209 6.11437 15.9772 5.57525C17.8336 5.03612 17.8312 2.23806 15.9772 1.54833C14.1233 0.858598 13.4896 3.324 13.4896 3.324" stroke="#667580" stroke-width="1.25087" stroke-linecap="round"/>
<path d="M8.36328 9.28519C8.36328 9.28519 14.6556 8.71667 17.4296 9.28519C20.2036 9.85371 19.3203 11.4847 18.0057 11.5592C16.691 11.6338 15.4778 10.7699 15.4778 10.7699" stroke="#667580" stroke-width="1.25087" stroke-linecap="round"/>
<path d="M0.867188 2.52638C0.867188 2.52638 2.77595 2.68462 5.03771 2.68462C7.29947 2.68462 10.3652 2.38779 10.3652 2.38779" stroke="#667580" stroke-width="1.25087" stroke-linecap="round"/>
<path d="M1.16595 6.11621C1.32252 5.78774 1.65399 5.57854 2.01787 5.57854H2.57301C3.09518 5.57854 3.4043 6.16303 3.11038 6.59463L2.85543 6.96902C2.67426 7.23506 2.86077 7.59594 3.18258 7.60203V7.60203C3.52367 7.60849 3.70451 8.00788 3.48435 8.26847L2.24432 9.73617C1.87026 10.1789 1.15582 9.80521 1.30612 9.24544L1.31515 9.21179C1.40312 8.8842 1.15629 8.56236 0.817096 8.56236V8.56236C0.437971 8.56236 0.188446 8.167 0.351573 7.82477L1.16595 6.11621Z" fill="url(#paint0_linear_6_713)"/>
<defs>
<linearGradient id="paint0_linear_6_713" x1="1.64579" y1="8.58553" x2="-0.238424" y2="7.89477" gradientUnits="userSpaceOnUse">
<stop stop-color="#FFD100"/>
<stop offset="1" stop-color="#FFF0AA"/>
</linearGradient>
</defs>
</svg>
